<svg id="Proteus_Logo" xmlns="http://www.w3.org/2000/svg" viewBox="0 0 60 13.85"><path id="s" d="m51.97,7.77l1.2-.24s-.2-2.07-2.93-2.07-2.75,1.91-2.75,2.24-.06,1.53,2.7,2.07c2.24.43,2.05,1.77,2.05,1.77,0,0,.08,1.69-1.73,1.69-2.11.02-2.16-2.01-2.16-2.01l-1.14.24s.2,2.34,3.31,2.36c2.87.04,2.99-2.3,2.99-2.3,0,0,.26-1.89-2.87-2.36-2.14-.37-1.93-1.52-1.93-1.52,0,0-.18-1.57,1.61-1.57s1.67,1.69,1.67,1.69h0Z" style="fill:#0065a0; fill-rule:evenodd;"/><path id="U" d="m39.48,5.47v4.98s-.06,3.4,3.37,3.4,3.31-3.4,3.31-3.4v-4.98h-1.2v5.1s-.02,2.56-2.11,2.56-2.16-2.56-2.16-2.56v-5.1s-1.2,0-1.2,0Z" style="fill:#0065a0; fill-rule:evenodd;"/><path id="E" d="m38.35,5.47h-5.47v8.38h5.47v-.79h-4.19v-3.35h4.19v-.79h-4.19v-2.68h4.19v-.79h0Z" style="fill:#0065a0; fill-rule:evenodd;"/><path id="T" d="m26.09,5.47v.79h2.28v7.59h1.32v-7.59h2.28v-.79h-5.88Z" style="fill:#0065a0; fill-rule:evenodd;"/><path id="O" d="m21.31,5.45c2.32,0,4.19,1.87,4.21,4.19,0,2.32-1.87,4.19-4.19,4.21-2.32,0-4.19-1.87-4.21-4.19h0c.02-2.32,1.89-4.21,4.19-4.21h0Zm.04.73c1.65,0,2.99,1.55,2.99,3.46s-1.34,3.46-2.99,3.46-2.99-1.55-2.99-3.46,1.34-3.46,2.99-3.46h0Z" style="fill:#0065a0; fill-rule:evenodd;"/><path id="P" d="m5.39,13.85h1.2v-3.52s3.8.24,3.72-2.56c-.06-2.38-2.58-2.3-2.58-2.3h-2.34v8.38h0Zm1.2-7.6v3.29h.91s1.55.04,1.55-1.69-1.44-1.57-1.44-1.57l-1.02-.02h0Z" style="fill:#0065a0; fill-rule:evenodd;"/><path id="R" d="m11.28,13.85h1.2v-3.52h.39l2.56,3.52h1.14l-2.62-3.64c1.06-.22,2.28-.83,2.24-2.42-.06-2.38-2.58-2.32-2.58-2.32h-2.34v8.38h0Zm1.2-7.6v3.29h.91s1.55.04,1.55-1.69-1.44-1.57-1.44-1.57l-1.02-.02h0Z" style="fill:#0065a0; fill-rule:evenodd;"/><path d="m13.56,0l-3.78,3.84H3.66v6.32l-3.66,3.7V0h13.56Z" style="fill:#3fc5f2; fill-rule:evenodd;"/><path d="m60,8.21l-5.59,5.65h5.59v-5.65Z" style="fill:#3fc5f2; fill-rule:evenodd;"/></svg>