<svg id="Vision_Logo" data-name="Vision Logo" xmlns="http://www.w3.org/2000/svg" width="467.53" height="141.7" viewBox="0 0 467.53 141.7">
  <defs>
    <style>
      .cls-1 {
        fill: #58c0a1;
      }

      .cls-1, .cls-2, .cls-3, .cls-4, .cls-5 {
        fill-rule: evenodd;
      }

      .cls-2 {
        fill: #3d7890;
      }

      .cls-3 {
        fill: #f9ad84;
      }

      .cls-4 {
        fill: #3bc6f3;
      }

      .cls-5 {
        fill: #c4b3d8;
      }
    </style>
  </defs>
  <path class="cls-1" d="M5397.22,12006.3a11.523,11.523,0,0,0-8.82,4.1c-0.28.4-25.13,30.4-49.53,96.1-11.13-18.2-19.84-28.6-20.33-29.2a11.505,11.505,0,0,0-17.62,14.8c0.15,0.1,14.99,18,30.18,47.6a11.4,11.4,0,0,0,10.24,6.2h0.93a11.568,11.568,0,0,0,10.03-7.9c24.91-77,53.45-112.5,53.74-112.8a11.517,11.517,0,0,0-8.82-18.9" transform="translate(-5298.25 -12006.3)"/>
  <path id="Shape_1_copy_2" data-name="Shape 1 copy 2" class="cls-2" d="M5399.63,12138.4a8.911,8.911,0,0,0,17.82.2v-85.4a8.837,8.837,0,0,0-8.72-8.9h-0.12a8.88,8.88,0,0,0-8.98,8.9v85.2Zm73.17,9.6c21.3,0,36.23-11.3,36.23-30.3v-0.3c0-16.8-11.02-24.5-32.46-29.7-19.56-4.6-24.2-8.1-24.2-16v-0.2c0-6.7,6.08-12.1,16.52-12.1,7.97,0,15.5,2.6,23.32,7.7a8.518,8.518,0,0,0,4.65,1.3,8.336,8.336,0,0,0,4.49-15.4,56.478,56.478,0,0,0-32.17-9.4c-20.15,0-34.63,12-34.63,29.5v0.2c0,18.8,12.17,25.1,33.76,30.3,18.84,4.4,22.89,8.3,22.89,15.6v0.3c0,7.5-6.95,12.7-17.97,12.7s-19.99-3.8-28.4-10.4a8.069,8.069,0,0,0-5.21-1.6,8.256,8.256,0,0,0-8.4,8.2,8.545,8.545,0,0,0,3.47,6.9A63.111,63.111,0,0,0,5472.8,12148Zm51-9.6a8.916,8.916,0,0,0,17.83.2v-85.4a8.837,8.837,0,0,0-8.72-8.9h-0.12a8.889,8.889,0,0,0-8.99,8.9v85.2Zm153.59,0.2a8.77,8.77,0,0,0,17.54,0v-64.4l52.16,67.6c2.46,3.2,5.08,5.3,9.28,5.3h0.72a8.647,8.647,0,0,0,8.7-8.8V12053a8.77,8.77,0,0,0-17.54,0v62.4l-50.71-65.7c-2.47-3-4.93-5.2-9.28-5.2h-1.88a8.926,8.926,0,0,0-8.99,8.9v85.2Z" transform="translate(-5298.25 -12006.3)"/>
  <path id="Shape_1_copy_3" data-name="Shape 1 copy 3" class="cls-3" d="M5578.82,12111a33.756,33.756,0,0,0,41.01,16.9,11.583,11.583,0,0,0-.58,9,12.1,12.1,0,0,0,7.93,7.1,51.708,51.708,0,0,1-64.68-25.8c-1.66-3.4-.97-7.6,4.14-10.6C5571.75,12104.5,5577.69,12108.8,5578.82,12111Z" transform="translate(-5298.25 -12006.3)"/>
  <path id="Shape_1_copy" data-name="Shape 1 copy" class="cls-4" d="M5559.74,12111.3a51.607,51.607,0,0,1,94.75-39.8c1.61,3.1,1.01,7.4-3.76,10.3-5.82,3.5-11.38-1.2-12.39-2.9a33.861,33.861,0,0,0-63.11,17,34.754,34.754,0,0,0,1.24,9.1,11.449,11.449,0,0,0-9.6-1A12.022,12.022,0,0,0,5559.74,12111.3Z" transform="translate(-5298.25 -12006.3)"/>
  <path id="Shape_1_copy_4" data-name="Shape 1 copy 4" class="cls-5" d="M5625.72,12125.3a33.8,33.8,0,0,0,15.36-40.5,12.182,12.182,0,0,0,9.57.5s5.62-2.6,6.63-7.7a51.652,51.652,0,0,1-23.35,63.3c-0.93.5-7.69,2.2-10.82-3.7C5619.98,12131.2,5623.13,12126.8,5625.72,12125.3Z" transform="translate(-5298.25 -12006.3)"/>
</svg>
