<?xml version="1.0" encoding="UTF-8"?><svg id="Layer_2" xmlns="http://www.w3.org/2000/svg" viewBox="0 0 470.53 100"><defs><style>.cls-1{fill:#fff;}.cls-2{fill:#bb3995;}.cls-3{fill:#344669;}</style></defs><g id="Layer_2-2"><g><g><circle class="cls-1" cx="50" cy="50" r="50"/><g><path class="cls-2" d="M76.79,67.37c-.91,3.16-3.95,3.22-6.55,.13-2.03-2.41-2.17-3.19-1.08-6.07,.74-1.99,6.81-8.69,7.86-8.69,.77,0,.58,11.82-.23,14.63Z"/><path class="cls-2" d="M50,0C26.68,0,7.08,15.98,1.56,37.59H30.34v9.06c0,14.94,.31,15.76,3.39,19.02,2.63,2.78,5.22,3.99,8.51,3.99,4.7,0,4.7-3.05,.02-16.47-4.39-12.59-3.59-18.46,3.52-25.76,4.79-4.91,10.39-7.41,16.6-7.43,2.99-.01,6.45,.49,8.66,1.26,4.73,1.63,10,6.38,12.61,11.35l2.04,3.89,7.22-7.2,1.77-1.76C86.45,11.21,69.53,0,50,0ZM24.64,32.08c-4.67,0-8.45-3.78-8.45-8.44s3.78-8.45,8.45-8.45,8.44,3.78,8.44,8.45-3.78,8.44-8.44,8.44Z"/><path class="cls-2" d="M100,50c0,27.61-22.39,50-50,50S0,77.61,0,50c0-.85,.02-1.7,.07-2.54H19.76s.29,20.09,1.09,22.79c3.64,12.26,18.37,13.07,28.7,1.58,4.16-4.62,5.68-7.94,6.03-13.12,.24-3.6-.17-5.62-2.67-13.05-1.63-4.83-3.01-10.21-3.07-11.95l-.11-3.18,4.44-.21c3.55-.17,5.22,.15,8.3,1.56,4.52,2.07,10,7.41,11.89,11.59l1.33,2.95-5.27,5.45c-6.04,6.25-9.37,10.87-10.85,15.06-5.05,14.32,8.99,17.99,20.6,5.37,5.87-6.38,8.42-14.51,7.67-24.49l-.45-6,8.14-8.09,1.29-1.28c2.06,5.47,3.18,11.38,3.18,17.56Z"/></g></g><g><path class="cls-3" d="M121.47,20h13.43v60h-13.43V20Z"/><path class="cls-3" d="M201.86,20v60h-11.02l-28.92-36.43v36.43h-13.26V20h11.1l28.84,36.43V20h13.26Z"/><path class="cls-3" d="M211.06,73.29l4.56-10.11c4.89,3.56,12.18,6.05,19.14,6.05,7.96,0,11.19-2.65,11.19-6.22,0-10.86-33.73-3.4-33.73-24.94,0-9.86,7.96-18.07,24.45-18.07,7.29,0,14.75,1.74,20.14,5.14l-4.14,10.19c-5.39-3.07-10.94-4.56-16.08-4.56-7.96,0-11.02,2.98-11.02,6.63,0,10.69,33.73,3.32,33.73,24.61,0,9.7-8.04,17.98-24.61,17.98-9.2,0-18.48-2.73-23.62-6.71Z"/><path class="cls-3" d="M268.49,20h13.43v60h-13.43V20Z"/><path class="cls-3" d="M334.87,49.09h12.27v23.54c-6.38,4.81-15.17,7.38-23.45,7.38-18.23,0-31.66-12.51-31.66-30s13.43-30,31.91-30c10.19,0,18.65,3.48,24.28,10.03l-8.62,7.96c-4.23-4.48-9.12-6.55-15-6.55-11.27,0-18.98,7.54-18.98,18.56s7.71,18.56,18.81,18.56c3.65,0,7.04-.66,10.44-2.49v-16.99Z"/><path class="cls-3" d="M412.77,20v60h-13.43v-24.6h-26.35v24.6h-13.42V20h13.42v23.66h26.35V20h13.43Z"/><path class="cls-3" d="M438.54,31.31h-18.56v-11.31h50.55v11.31h-18.56v48.69h-13.42V31.31Z"/></g></g></g></svg>