<?xml version="1.0" encoding="UTF-8"?><svg id="Layer_2" xmlns="http://www.w3.org/2000/svg" viewBox="0 0 922 200"><defs><style>.cls-1{fill:#fdfefe;}.cls-2{fill:#a453a0;stroke-linejoin:round;}.cls-2,.cls-3{stroke:#bb3b95;stroke-width:2px;}.cls-4{fill:#dcdbdb;}.cls-3{fill:none;stroke-miterlimit:10;}.cls-5{fill:#bb3b95;}.cls-6{fill:#fff;}</style></defs><path class="cls-6" d="m137,69.98h13.89l.11,48.02h30v12.02h-44v-60.04Z"/><path class="cls-6" d="m191.06,70h13.89v60h-13.89v-60Z"/><path class="cls-6" d="m274.79,70l-25.97,60h-13.71l-25.89-60h15l18.26,42.86,18.51-42.86h13.8Z"/><path class="cls-6" d="m325,118v12h-46v-60h46v12h-32v12h26v12h-26v12h32Z"/><path class="cls-6" d="m338.83,70h25.29c19.29,0,32.4,12.17,32.4,30s-13.11,30-32.4,30h-25.29v-60Zm24.77,52.54c14.83,0,24.34-9.09,24.34-22.54s-9.51-22.54-24.34-22.54h-16.2v45.09h16.2Z"/><path class="cls-6" d="m404.5,100c0-17.18,13.24-30,31.26-30s31.09,12.74,31.09,30-13.24,30-31.09,30-31.26-12.82-31.26-30Zm53.97,0c0-12.99-9.72-22.54-22.71-22.54s-22.88,9.55-22.88,22.54,9.72,22.54,22.88,22.54,22.71-9.55,22.71-22.54Z"/><path class="cls-6" d="m474.67,100c0-17.35,13.39-30,31.45-30,9.16,0,17.12,3.1,22.55,9.13l-5.51,5.28c-4.58-4.78-10.17-6.96-16.7-6.96-13.39,0-23.31,9.55-23.31,22.54s9.92,22.54,23.31,22.54c6.53,0,12.12-2.26,16.7-7.04l5.51,5.28c-5.43,6.03-13.39,9.22-22.63,9.22-17.97,0-31.37-12.65-31.37-30Z"/><path class="cls-6" d="m536.67,103.73v-33.73h8.45v33.39c0,13.14,6,19.07,16.64,19.07s16.72-5.93,16.72-19.07v-33.39h8.19v33.73c0,17.2-9.38,26.27-25,26.27s-25-9.07-25-26.27Z"/><path class="cls-6" d="m652.42,130l-.09-43.71-21.73,36.43h-3.95l-21.73-36.17v43.46h-8.25v-60h7.04l25.08,42.17,24.74-42.17h7.04l.09,60h-8.25Z"/><path class="cls-6" d="m714.67,122.54v7.46h-44v-60h44v7.46h-35.34v18.43h30.4v7.29h-30.4v19.37h35.34Z"/><path class="cls-6" d="m776.67,70v60h-7.08l-36.28-44.74v44.74h-8.64v-60h7.08l36.28,44.74v-44.74h8.64Z"/><path class="cls-6" d="m805.4,77.46h-20.73v-7.46h50v7.46h-20.73v52.54h-8.55v-52.54Z"/><path class="cls-6" d="m840.17,122.63l3.09-6.54c4.34,3.94,11.77,6.79,19.29,6.79,10.1,0,14.44-3.94,14.44-9.05,0-14.33-35.4-5.28-35.4-27.07,0-9.05,7.01-16.76,22.38-16.76,6.85,0,13.94,1.84,18.78,5.2l-2.76,6.7c-5.09-3.27-10.85-4.78-16.03-4.78-9.94,0-14.19,4.19-14.19,9.3,0,14.33,35.4,5.36,35.4,26.9,0,8.97-7.18,16.68-22.63,16.68-8.93,0-17.7-3.02-22.37-7.37Z"/><path class="cls-5" d="m117,120.34v-40.69c0-2.88-1.55-5.53-4.05-6.96l-36-20.45c-2.45-1.39-5.45-1.39-7.9,0l-36,20.45c-2.5,1.42-4.05,4.08-4.05,6.96v40.69c0,2.88,1.55,5.53,4.05,6.96l36,20.45c2.45,1.39,5.45,1.39,7.9,0l36-20.45c2.5-1.42,4.05-4.08,4.05-6.96Z"/><path class="cls-1" d="m74.83,130h-16.57c-7.57,0-13.71-6.14-13.71-13.71v-22.29c0-.95.77-1.71,1.71-1.71h18.69c.44,0,.86.17,1.18.47l9.88,9.43c.34.32.53.77.53,1.24v24.86c0,.95-.77,1.71-1.71,1.71Z"/><path class="cls-1" d="m85.98,125.78h-34.29c-1.42,0-2.57-1.15-2.57-2.57v-40.35c0-.95.77-1.71,1.71-1.71h23.27c.64,0,1.26.24,1.74.68l11.87,10.88c.53.49.83,1.17.83,1.9v28.61c0,1.42-1.15,2.57-2.57,2.57Z"/><path class="cls-3" d="m52.55,75.14v41.14c0,3.31,2.69,6,6,6h36.86"/><path class="cls-3" d="m48.12,79.63v36.86c0,5.68,4.61,10.29,10.29,10.29h32.57"/><path class="cls-1" d="m96.26,121.43h-37.71c-2.84,0-5.14-2.3-5.14-5.14v-41.14c0-2.84,2.3-5.14,5.14-5.14h24.57c1.24,0,2.43.45,3.37,1.26l13.14,11.4c1.13.98,1.77,2.39,1.77,3.88v29.74c0,2.84-2.3,5.14-5.14,5.14Z"/><rect class="cls-4" x="61.98" y="76" width="13.71" height="5.14" rx="2.57" ry="2.57"/><rect class="cls-4" x="61.98" y="96.57" width="13.71" height="5.14" rx="2.57" ry="2.57"/><rect class="cls-4" x="61.98" y="110.29" width="13.71" height="5.14" rx="2.57" ry="2.57"/><rect class="cls-4" x="79.12" y="103.43" width="13.71" height="5.14" rx="2.57" ry="2.57"/><rect class="cls-4" x="79.12" y="82.86" width="13.71" height="5.14" rx="2.57" ry="2.57"/><rect class="cls-5" x="61.98" y="82.86" width="13.71" height="5.14" rx="2.57" ry="2.57"/><rect class="cls-5" x="61.98" y="89.71" width="13.71" height="5.14" rx="2.57" ry="2.57"/><rect class="cls-5" x="61.98" y="103.43" width="13.71" height="5.14" rx="2.57" ry="2.57"/><rect class="cls-5" x="79.12" y="110.29" width="13.71" height="5.14" rx="2.57" ry="2.57"/><rect class="cls-5" x="79.12" y="96.57" width="13.71" height="5.14" rx="2.57" ry="2.57"/><rect class="cls-5" x="79.12" y="89.71" width="13.71" height="5.14" rx="2.57" ry="2.57"/><circle class="cls-3" cx="57.69" cy="85.43" r="1.71"/><line class="cls-2" x1="56.83" y1="85.43" x2="51.69" y2="85.43"/><circle class="cls-3" cx="57.69" cy="92.29" r="1.71"/><line class="cls-2" x1="56.83" y1="92.29" x2="51.69" y2="92.29"/><circle class="cls-3" cx="57.69" cy="106" r="1.71"/><line class="cls-2" x1="56.83" y1="106" x2="51.69" y2="106"/><circle class="cls-3" cx="97.12" cy="92.29" r="1.71"/><line class="cls-2" x1="97.98" y1="92.29" x2="103.12" y2="92.29"/><circle class="cls-3" cx="97.12" cy="99.14" r="1.71"/><line class="cls-2" x1="97.98" y1="99.14" x2="103.12" y2="99.14"/><circle class="cls-3" cx="97.12" cy="112.86" r="1.71"/><line class="cls-2" x1="97.98" y1="112.86" x2="103.12" y2="112.86"/></svg>