<?xml version="1.0" encoding="UTF-8"?><svg id="Layer_2" xmlns="http://www.w3.org/2000/svg" viewBox="0 0 559.94 80.52"><defs><style>.cls-1{fill:#f9ad84;}.cls-1,.cls-2,.cls-3,.cls-4,.cls-5{fill-rule:evenodd;}.cls-2{fill:#c4b3d8;}.cls-3{fill:#3bc6f3;}.cls-4,.cls-6{fill:#3d7890;}.cls-5{fill:#58c0a1;}</style></defs><g id="Vision_Logo"><path class="cls-5" d="m55.9,0c-1.92,0-3.74.85-4.98,2.31-.16.23-14.19,17.17-27.97,54.26-6.28-10.28-11.2-16.15-11.48-16.49-2.31-2.75-6.41-3.1-9.15-.8s-3.1,6.41-.8,9.15c.08.06,8.46,10.16,17.04,26.88,1.11,2.17,3.35,3.52,5.78,3.5h.53c2.61-.22,4.84-1.97,5.66-4.46C44.6,30.89,60.71,10.84,60.88,10.67c2.3-2.76,1.93-6.86-.82-9.16-1.17-.97-2.64-1.51-4.16-1.51"/><path id="Shape_1_copy_2" class="cls-4" d="m57.26,74.59c0,2.78,2.25,5.03,5.03,5.03,2.74,0,4.97-2.18,5.03-4.92V26.48c.02-2.74-2.18-4.99-4.92-5.03h-.07c-2.77-.03-5.04,2.19-5.07,4.96,0,.02,0,.05,0,.07v48.11h0Zm41.31,5.42c12.03,0,20.46-6.38,20.46-17.11v-.17c0-9.49-6.22-13.83-18.33-16.77-11.04-2.6-13.66-4.57-13.66-9.03v-.11c0-3.78,3.43-6.83,9.33-6.83,4.5,0,8.75,1.47,13.17,4.35.79.49,1.7.75,2.63.73,2.6.02,4.72-2.07,4.74-4.67.01-1.63-.82-3.16-2.21-4.03-5.38-3.57-11.71-5.42-18.16-5.31-11.38,0-19.55,6.78-19.55,16.66v.11c0,10.62,6.87,14.17,19.06,17.11,10.64,2.48,12.92,4.69,12.92,8.81v.17c0,4.23-3.92,7.17-10.15,7.17s-11.29-2.15-16.04-5.87c-.85-.63-1.89-.95-2.94-.9-2.57-.04-4.7,2.01-4.74,4.58,0,.02,0,.03,0,.05,0,1.54.72,2.98,1.96,3.9,6.2,4.67,13.76,7.19,21.52,7.17Zm28.8-5.42c0,2.78,2.25,5.04,5.03,5.04,2.74,0,4.99-2.19,5.04-4.93V26.48c.02-2.74-2.18-4.99-4.92-5.03h-.07c-2.77-.03-5.04,2.19-5.08,4.96,0,.02,0,.04,0,.06v48.11h0Zm86.72.11c0,2.73,2.22,4.95,4.95,4.95s4.95-2.22,4.95-4.95v-36.36l29.45,38.17c1.39,1.81,2.87,2.99,5.24,2.99h.41c2.7.02,4.9-2.15,4.91-4.85,0-.04,0-.08,0-.12V26.37c0-2.73-2.22-4.95-4.95-4.95s-4.95,2.22-4.95,4.95v35.23l-28.63-37.1c-1.39-1.69-2.78-2.94-5.24-2.94h-1.06c-2.78-.02-5.06,2.22-5.08,5v48.13h0Z"/><path id="Shape_1_copy_3" class="cls-1" d="m158.44,59.12c4.25,8.52,14.14,12.59,23.16,9.54-.79,1.58-.91,3.41-.33,5.08.79,1.96,2.45,3.44,4.48,4.01-14.11,5.3-29.93-1.01-36.52-14.57-.94-1.92-.55-4.29,2.34-5.98,2.89-1.75,6.24.68,6.88,1.92Z"/><path id="Shape_1_copy" class="cls-3" d="m147.66,59.29c-4.83-15.35,3.7-31.71,19.05-36.54,13.37-4.21,27.85,1.7,34.45,14.07.91,1.75.57,4.18-2.12,5.82-3.29,1.98-6.43-.68-7-1.64-5.32-9.12-17.03-12.2-26.15-6.88-5.86,3.42-9.47,9.69-9.49,16.48,0,1.74.24,3.46.7,5.14-1.64-.98-3.62-1.18-5.42-.56-1.89.71-3.36,2.22-4.03,4.12Z"/><path id="Shape_1_copy_4" class="cls-2" d="m184.92,67.19c8.04-4.53,11.69-14.15,8.67-22.87,1.69.83,3.64.93,5.4.28,0,0,3.17-1.47,3.74-4.35,5.07,13.53-.54,28.74-13.18,35.74-.53.28-4.34,1.24-6.11-2.09-1.77-3.39.01-5.87,1.47-6.72Z"/><path class="cls-6" d="m278.02,24.83c0-1.82,1.49-3.31,3.23-3.31h21.46c6.63,0,11.85,1.91,15.17,5.14,2.4,2.49,3.73,5.55,3.73,9.28v.17c0,7.54-4.64,11.44-9.2,13.43,6.88,2.07,12.43,6.05,12.43,14.01v.17c0,9.95-8.37,15.83-21.05,15.83h-22.54c-1.74,0-3.23-1.49-3.23-3.31V24.83Zm23.62,22.54c7.87,0,13.34-3.56,13.34-10.36v-.17c0-5.72-4.56-9.45-12.85-9.45h-17.65v19.97h17.15Zm2.32,26.27c8.78,0,14.25-3.9,14.25-10.36v-.17c0-6.3-5.3-9.94-15.41-9.94h-18.32v20.47h19.48Z"/><path class="cls-6" d="m331.05,50.69v-.17c0-15.99,12.02-30,29.67-30s29.5,13.84,29.5,29.83v.17c0,15.99-12.02,30-29.67,30s-29.5-13.84-29.5-29.83Zm52.38,0v-.17c0-13.18-9.61-23.95-22.87-23.95s-22.71,10.61-22.71,23.78v.17c0,13.18,9.61,23.95,22.87,23.95s22.71-10.61,22.71-23.78Z"/><path class="cls-6" d="m397.27,50.69v-.17c0-15.99,12.02-30,29.67-30s29.5,13.84,29.5,29.83v.17c0,15.99-12.02,30-29.67,30s-29.5-13.84-29.5-29.83Zm52.38,0v-.17c0-13.18-9.61-23.95-22.87-23.95s-22.71,10.61-22.71,23.78v.17c0,13.18,9.61,23.95,22.87,23.95s22.71-10.61,22.71-23.78Z"/><path class="cls-6" d="m466.05,24.42c0-1.82,1.49-3.32,3.23-3.32s3.31,1.49,3.31,3.32v31.74l33.07-33.89c.75-.66,1.49-1.16,2.57-1.16,1.74,0,3.15,1.57,3.15,3.23,0,.91-.41,1.66-1.08,2.32l-20.55,20.39,22.04,27.18c.58.75.91,1.41.91,2.4,0,1.74-1.49,3.31-3.31,3.31-1.24,0-2.07-.66-2.65-1.49l-21.63-26.93-12.51,12.51v12.6c0,1.82-1.49,3.31-3.31,3.31s-3.23-1.49-3.23-3.31V24.42Z"/><path class="cls-6" d="m518.17,72.56c-.75-.5-1.24-1.41-1.24-2.49,0-1.82,1.41-3.23,3.15-3.23.83,0,1.57.33,1.99.75,5.47,4.64,10.94,6.88,18.31,6.88,7.79,0,12.93-4.14,12.93-9.86v-.17c0-5.39-2.9-8.45-15.08-11.02-13.34-2.9-19.48-7.21-19.48-16.74v-.17c0-9.12,8.04-15.83,19.06-15.83,7.62,0,13.18,1.91,18.48,5.72.66.5,1.41,1.41,1.41,2.65,0,1.74-1.41,3.15-3.15,3.15-.75,0-1.33-.17-1.91-.58-4.89-3.56-9.61-5.06-15-5.06-7.54,0-12.35,4.14-12.35,9.36v.17c0,5.47,2.98,8.54,15.75,11.27,12.93,2.82,18.9,7.54,18.9,16.41v.17c0,9.95-8.29,16.41-19.81,16.41-8.45,0-15.5-2.65-21.96-7.79Z"/></g></svg>