<?xml version="1.0" encoding="UTF-8"?><svg id="Vision_Logo" xmlns="http://www.w3.org/2000/svg" viewBox="0 0 483.19 141.7"><defs><style>.cls-1{fill:#f9ad84;}.cls-1,.cls-2,.cls-3,.cls-4,.cls-5,.cls-6{fill-rule:evenodd;}.cls-2{fill:#c4b3d8;}.cls-3{fill:#dd89fc;}.cls-4{fill:#fff;}.cls-5{fill:#3bc6f3;}.cls-6{fill:#58c0a1;}</style></defs><path class="cls-6" d="m114.31,0c-3.4,0-6.6,1.5-8.8,4.1-.3.4-25.2,30.4-49.6,96.1-11.1-18.2-19.8-28.6-20.3-29.2-4.1-4.9-11.3-5.5-16.2-1.4s-5.5,11.3-1.4,16.2c.1.1,15,18,30.2,47.6,2,3.8,5.9,6.2,10.2,6.2h.9c4.6-.4,8.6-3.5,10-7.9C94.21,54.7,122.81,19.2,123.01,18.9c4.1-4.9,3.4-12.1-1.5-16.2-1.9-1.7-4.5-2.7-7.2-2.7"/><path id="Shape_1_copy_2" class="cls-4" d="m116.71,132.1c0,4.9,4,8.9,8.9,8.9s8.8-3.9,8.9-8.7V46.9c0-4.9-3.9-8.8-8.7-8.9h-.1c-4.9-.1-8.9,3.9-9,8.8v85.3h0Zm73.1,9.6c21.3,0,36.2-11.3,36.2-30.3v-.3c0-16.8-11-24.5-32.5-29.7-19.6-4.6-24.2-8.1-24.2-16v-.2c0-6.7,6.1-12.1,16.5-12.1,8,0,15.5,2.6,23.3,7.7,1.4.9,3,1.3,4.6,1.3,4.6,0,8.4-3.7,8.4-8.3,0-2.9-1.5-5.6-3.9-7.1-9.5-6.3-20.7-9.6-32.2-9.4-20.1,0-34.6,12-34.6,29.5v.2c0,18.8,12.2,25.1,33.8,30.3,18.8,4.4,22.9,8.3,22.9,15.6v.3c0,7.5-7,12.7-18,12.7s-20-3.8-28.4-10.4c-1.5-1.1-3.3-1.7-5.2-1.6-4.6-.1-8.3,3.6-8.4,8.1v.1c0,2.7,1.3,5.3,3.5,6.9,11.1,8.3,24.5,12.7,38.2,12.7Zm51-9.6c0,4.9,4,8.9,8.9,8.9s8.8-3.9,8.9-8.7V46.9c0-4.9-3.9-8.8-8.7-8.9h-.1c-4.9-.1-8.9,3.9-9,8.8v85.3h0Zm153.6.2c0,4.8,3.9,8.8,8.8,8.8s8.8-3.9,8.8-8.8v-64.4l52.2,67.6c2.5,3.2,5.1,5.3,9.3,5.3h.7c4.8,0,8.7-3.8,8.7-8.6V46.7c0-4.8-3.9-8.8-8.8-8.8s-8.8,3.9-8.8,8.8v62.4l-50.7-65.7c-2.5-3-4.9-5.2-9.3-5.2h-1.9c-4.9,0-9,3.9-9,8.9h0v85.2h0Z"/><path id="Shape_1_copy_3" class="cls-1" d="m295.91,104.7c7.5,15.1,25,22.3,41,16.9-1.4,2.8-1.6,6-.6,9,1.4,3.5,4.3,6.1,7.9,7.1-25,9.4-53-1.8-64.7-25.8-1.7-3.4-1-7.6,4.1-10.6,5.2-3.1,11.1,1.2,12.3,3.4Z"/><path id="Shape_1_copy" class="cls-5" d="m276.81,105c-8.6-27.2,6.6-56.2,33.7-64.7,23.7-7.5,49.3,3,61,24.9,1.6,3.1,1,7.4-3.8,10.3-5.8,3.5-11.4-1.2-12.4-2.9-9.4-16.2-30.2-21.6-46.3-12.2-10.3,6.1-16.7,17.2-16.7,29.2,0,3.1.4,6.1,1.2,9.1-2.9-1.7-6.4-2.1-9.6-1-3.3,1.3-5.9,3.9-7.1,7.3Z"/><path id="Shape_1_copy_4" class="cls-2" d="m342.81,119c14.2-8,20.7-25.1,15.4-40.5,3,1.5,6.4,1.6,9.6.5,0,0,5.6-2.6,6.6-7.7,9,24-1,50.9-23.4,63.3-.9.5-7.7,2.2-10.8-3.7-3.2-6,0-10.4,2.6-11.9Z"/><path class="cls-3" d="m6.39,58.1c.02.15.03.3.03.45-.05,1.65-1.43,2.95-3.08,2.9s-2.95-1.43-2.9-3.08c.05-1.62,1.37-2.9,2.99-2.9,1.09,0,2.09.61,2.61,1.57l1.22-.64c-.45-1.68-.09-3.47.98-4.84l-2.19-2.25c-.32.19-.68.29-1.06.29-1.2.03-2.19-.91-2.23-2.1-.03-1.2.91-2.19,2.1-2.23,1.2-.03,2.19.91,2.23,2.1,0,.02,0,.04,0,.06,0,.38-.1.76-.29,1.09l2.19,2.25c1.91-1.61,4.69-1.61,6.6,0l2.47-2.55c-.38-.55-.58-1.2-.57-1.86.05-1.74,1.5-3.11,3.24-3.05,1.74.05,3.11,1.5,3.05,3.24-.05,1.7-1.44,3.06-3.15,3.06-.65,0-1.29-.21-1.81-.59l-2.47,2.55c1.28,1.63,1.53,3.84.66,5.73l1.4.64c.58-.83,1.53-1.32,2.54-1.32,1.79-.05,3.28,1.35,3.33,3.14.05,1.79-1.35,3.28-3.14,3.33-1.79.05-3.28-1.35-3.33-3.14,0-.03,0-.06,0-.1,0-.31.04-.62.13-.92l-1.49-.68c-.86,1.17-2.17,1.92-3.61,2.08v2.21c1.12.3,1.79,1.45,1.5,2.57-.3,1.12-1.45,1.79-2.57,1.5s-1.79-1.45-1.5-2.57c.19-.73.76-1.3,1.5-1.5v-2.21c-1.77-.2-3.32-1.28-4.11-2.88l-1.27.67Z"/></svg>