<svg id="vision_logo" xmlns="http://www.w3.org/2000/svg" width="102.63" height="31.156" viewBox="0 0 102.63 31.156">
  <defs>
    <style>
      .cls-1 {
        fill: #01e1af;
      }

      .cls-1, .cls-2, .cls-3, .cls-4, .cls-5, .cls-6 {
        fill-rule: evenodd;
      }

      .cls-2 {
        fill: #51758d;
      }

      .cls-3 {
        fill: #fff;
      }

      .cls-4 {
        fill: #ffad85;
      }

      .cls-5 {
        fill: #00c9ff;
      }

      .cls-6 {
        fill: #c4b3f9;
      }
    </style>
  </defs>
  <path class="cls-1" d="M4917.73,586.859a2.514,2.514,0,0,0-1.94.9c-0.06.072-5.52,6.682-10.87,21.114a57.274,57.274,0,0,0-4.46-6.424,2.526,2.526,0,0,0-3.87,3.248,61.729,61.729,0,0,1,6.62,10.469,2.538,2.538,0,0,0,2.25,1.374c0.07,0,.14,0,0.2-0.008a2.518,2.518,0,0,0,2.2-1.74c5.47-16.926,11.74-24.715,11.8-24.788a2.524,2.524,0,0,0-1.93-4.148" transform="translate(-4896 -586.844)"/>
  <path id="Shape_1_copy_2" data-name="Shape 1 copy 2" class="cls-2" d="M4918.25,615.9a1.955,1.955,0,0,0,3.91.025V597.156a1.922,1.922,0,0,0-1.91-1.944h-0.02a1.94,1.94,0,0,0-1.98,1.944V615.9Zm16.06,2.1c4.68,0,7.95-2.486,7.95-6.661v-0.064c0-3.7-2.41-5.387-7.12-6.534-4.29-1.02-5.31-1.784-5.31-3.5v-0.064c0-1.467,1.33-2.646,3.62-2.646a9.222,9.222,0,0,1,5.12,1.69,1.914,1.914,0,0,0,1.02.286,1.824,1.824,0,0,0,1.85-1.817,1.782,1.782,0,0,0-.86-1.561,12.237,12.237,0,0,0-7.06-2.071c-4.42,0-7.6,2.645-7.6,6.469v0.064c0,4.112,2.67,5.514,7.41,6.661,4.13,0.956,5.02,1.817,5.02,3.41v0.064c0,1.658-1.53,2.8-3.94,2.8a9.669,9.669,0,0,1-6.24-2.294,1.783,1.783,0,0,0-1.14-.351,1.83,1.83,0,0,0-1.08,3.314A13.833,13.833,0,0,0,4934.31,618Zm11.2-2.1a1.955,1.955,0,0,0,3.91.025V597.156a1.93,1.93,0,0,0-1.92-1.944h-0.02a1.937,1.937,0,0,0-1.97,1.944V615.9Zm33.71,0.032a1.92,1.92,0,0,0,3.84,0v-14.15l11.45,14.851a2.471,2.471,0,0,0,2.04,1.179h0.16a1.9,1.9,0,0,0,1.91-1.944v-18.74a1.925,1.925,0,0,0-3.85,0v13.7l-11.13-14.436a2.46,2.46,0,0,0-2.04-1.148h-0.41a1.955,1.955,0,0,0-1.97,1.955v18.729Z" transform="translate(-4896 -586.844)"/>
  <path id="Shape_1_copy_5" data-name="Shape 1 copy 5" class="cls-3" d="M4918.25,615.9a1.955,1.955,0,0,0,3.91.025V597.156a1.922,1.922,0,0,0-1.91-1.944h-0.02a1.94,1.94,0,0,0-1.98,1.944V615.9Zm16.06,2.1c4.68,0,7.95-2.486,7.95-6.661v-0.064c0-3.7-2.41-5.387-7.12-6.534-4.29-1.02-5.31-1.784-5.31-3.5v-0.064c0-1.467,1.33-2.646,3.62-2.646a9.222,9.222,0,0,1,5.12,1.69,1.914,1.914,0,0,0,1.02.286,1.824,1.824,0,0,0,1.85-1.817,1.782,1.782,0,0,0-.86-1.561,12.237,12.237,0,0,0-7.06-2.071c-4.42,0-7.6,2.645-7.6,6.469v0.064c0,4.112,2.67,5.514,7.41,6.661,4.13,0.956,5.02,1.817,5.02,3.41v0.064c0,1.658-1.53,2.8-3.94,2.8a9.669,9.669,0,0,1-6.24-2.294,1.783,1.783,0,0,0-1.14-.351,1.83,1.83,0,0,0-1.08,3.314A13.833,13.833,0,0,0,4934.31,618Zm11.2-2.1a1.955,1.955,0,0,0,3.91.025V597.156a1.93,1.93,0,0,0-1.92-1.944h-0.02a1.937,1.937,0,0,0-1.97,1.944V615.9Zm33.71,0.032a1.92,1.92,0,0,0,3.84,0v-14.15l11.45,14.851a2.471,2.471,0,0,0,2.04,1.179h0.16a1.9,1.9,0,0,0,1.91-1.944v-18.74a1.925,1.925,0,0,0-3.85,0v13.7l-11.13-14.436a2.46,2.46,0,0,0-2.04-1.148h-0.41a1.955,1.955,0,0,0-1.97,1.955v18.729Z" transform="translate(-4896 -586.844)"/>
  <path id="Shape_1_copy_3" data-name="Shape 1 copy 3" class="cls-4" d="M4957.58,609.873a7.439,7.439,0,0,0,9,3.712,2.536,2.536,0,0,0-.13,1.965,2.682,2.682,0,0,0,1.74,1.561,11.334,11.334,0,0,1-14.19-5.657,1.732,1.732,0,0,1,.91-2.345A2.12,2.12,0,0,1,4957.58,609.873Z" transform="translate(-4896 -586.844)"/>
  <path id="Shape_1_copy" data-name="Shape 1 copy" class="cls-5" d="M4953.39,609.934a11.333,11.333,0,0,1,20.8-8.758,1.686,1.686,0,0,1-.83,2.263,2.113,2.113,0,0,1-2.72-.636,7.432,7.432,0,0,0-13.58,5.731,2.574,2.574,0,0,0-2.1-.215A2.689,2.689,0,0,0,4953.39,609.934Z" transform="translate(-4896 -586.844)"/>
  <path id="Shape_1_copy_4" data-name="Shape 1 copy 4" class="cls-6" d="M4967.87,613.01a7.446,7.446,0,0,0,3.38-8.9,2.448,2.448,0,0,0,3.55-1.583,11.346,11.346,0,0,1-5.12,13.9,1.905,1.905,0,0,1-2.38-.812A1.878,1.878,0,0,1,4967.87,613.01Z" transform="translate(-4896 -586.844)"/>
</svg>
