<?xml version="1.0" encoding="UTF-8"?><svg id="Layer_2" xmlns="http://www.w3.org/2000/svg" viewBox="0 0 744.82 101"><defs><style>.cls-1{fill:#f6bb30;}.cls-2{fill:#fff;stroke:#e8e8e8;stroke-miterlimit:10;}.cls-3{fill:#4dbc86;}.cls-4{fill:#344669;}</style></defs><g id="Layer_2-2"><g><g><path class="cls-1" d="M90.5,70.5v12c0,4.42-3.58,8-8,8H42.81c1.39-.99,2.45-2.43,2.98-4.13,2.52-8.13,5.5-16.09,8.94-23.87h27.77c4.42,0,8,3.58,8,8Z"/><path class="cls-1" d="M85.5,38.5v12c0,4.42-3.58,8-8,8h-20.94c4.5-9.65,9.71-19,15.6-28h5.34c4.42,0,8,3.58,8,8Z"/><path class="cls-3" d="M34.48,90.5c-2.83,0-5.48-1.5-6.92-3.99-5.4-9.33-11.21-17.96-17.27-25.64-2.74-3.47-2.14-8.5,1.33-11.24,3.47-2.74,8.5-2.14,11.24,1.33,3.28,4.16,6.49,8.57,9.6,13.19,7.01-17.77,16.27-34.65,27.63-50.35,2.59-3.58,7.59-4.38,11.17-1.79,3.58,2.59,4.38,7.59,1.79,11.17-13.7,18.93-24.11,39.68-30.93,61.68-.94,3.03-3.59,5.22-6.75,5.58-.3,.03-.6,.05-.9,.05Z"/></g><g><path class="cls-4" d="M186.96,20.5l-25.64,60h-13.54l-25.55-60h14.81l18.02,42.86,18.28-42.86h13.62Z"/><path class="cls-4" d="M191.86,20.5h13.71v60h-13.71V20.5Z"/><path class="cls-4" d="M214.96,73.79l4.65-10.11c4.99,3.56,12.44,6.05,19.54,6.05,8.12,0,11.42-2.65,11.42-6.22,0-10.86-34.44-3.4-34.44-24.95,0-9.86,8.12-18.07,24.96-18.07,7.45,0,15.06,1.74,20.56,5.14l-4.23,10.19c-5.5-3.07-11.17-4.56-16.42-4.56-8.12,0-11.25,2.98-11.25,6.63,0,10.69,34.44,3.31,34.44,24.61,0,9.7-8.21,17.98-25.13,17.98-9.39,0-18.87-2.73-24.11-6.71Z"/><path class="cls-4" d="M273.59,20.5h13.71v60h-13.71V20.5Z"/><path class="cls-4" d="M297.62,50.5c0-17.24,13.71-30,32.41-30s32.41,12.68,32.41,30-13.79,30-32.41,30-32.41-12.76-32.41-30Zm50.94,0c0-11.02-7.95-18.56-18.53-18.56s-18.53,7.54-18.53,18.56,7.95,18.56,18.53,18.56,18.53-7.54,18.53-18.56Z"/><path class="cls-4" d="M427.07,20.5v60h-11.25l-29.53-36.43v36.43h-13.54V20.5h11.34l29.44,36.43V20.5h13.54Z"/></g><g><path class="cls-4" d="M489.81,64.3c0,10.29-7.7,16.2-22.68,16.2h-28.26V20.5h26.57c13.62,0,21.24,5.83,21.24,15.51,0,6.51-3.3,11.06-7.95,13.37,6.68,1.89,11.08,6.94,11.08,14.91Zm-42.47-36.86v19.2h17.35c8.63,0,13.54-3.26,13.54-9.6s-4.91-9.6-13.54-9.6h-17.35Zm33.93,36.17c0-6.94-5.08-10.03-14.47-10.03h-19.46v19.97h19.46c9.39,0,14.47-3,14.47-9.94Z"/><path class="cls-4" d="M498.1,50.5c0-17.18,13.37-30,31.56-30s31.39,12.74,31.39,30-13.37,30-31.39,30-31.56-12.82-31.56-30Zm54.49,0c0-12.99-9.81-22.54-22.93-22.54s-23.1,9.55-23.1,22.54,9.81,22.54,23.1,22.54,22.93-9.55,22.93-22.54Z"/><path class="cls-4" d="M569.17,50.5c0-17.18,13.37-30,31.56-30s31.39,12.74,31.39,30-13.37,30-31.39,30-31.56-12.82-31.56-30Zm54.49,0c0-12.99-9.81-22.54-22.93-22.54s-23.1,9.55-23.1,22.54,9.81,22.54,23.1,22.54,22.93-9.55,22.93-22.54Z"/><path class="cls-4" d="M664.36,53.84l-10.83,11.14v15.51h-8.46V20.5h8.46V54.01l32.15-33.51h9.65l-25.3,27,26.91,33h-9.9l-22.68-26.66Z"/><path class="cls-4" d="M699.21,73.13l3.13-6.54c4.4,3.94,11.93,6.79,19.54,6.79,10.24,0,14.64-3.94,14.64-9.05,0-14.33-35.88-5.28-35.88-27.07,0-9.05,7.11-16.76,22.68-16.76,6.94,0,14.13,1.84,19.04,5.2l-2.79,6.7c-5.16-3.27-11-4.78-16.25-4.78-10.07,0-14.38,4.19-14.38,9.3,0,14.33,35.88,5.36,35.88,26.9,0,8.97-7.28,16.68-22.93,16.68-9.05,0-17.94-3.02-22.68-7.37Z"/></g></g></g></svg>