<svg xmlns="http://www.w3.org/2000/svg" width="299.778" height="300.032" viewBox="0 0 700.907 701.5"><defs><style>      .cls-1 {        fill: #fff;      }      .cls-1, .cls-2, .cls-3 {        fill-rule: evenodd;      }      .cls-2 {        fill: #dd89fc;      }      .cls-3 {        fill: #58c0a1;      }    </style></defs><path class="cls-1" d="M509.482,174.822c193.545,0,350.444,157.037,350.444,350.751s-156.9,350.752-350.444,350.752S159.037,719.288,159.037,525.573,315.936,174.822,509.482,174.822Z" transform="translate(-159.031 -174.812)"></path><path class="cls-2" d="M328.854,508.006a10.4,10.4,0,0,1,.108,1.507,9.985,9.985,0,1,1-9.981-10.276,9.938,9.938,0,0,1,8.7,5.237l4.076-2.146a18.441,18.441,0,0,1,3.276-16.168l-7.3-7.514a6.831,6.831,0,0,1-3.529.98,7.23,7.23,0,1,1,7.02-7.227,7.352,7.352,0,0,1-.952,3.634l7.3,7.512a17.071,17.071,0,0,1,22.032,0l8.263-8.507a10.958,10.958,0,0,1-1.918-6.225,10.508,10.508,0,1,1,10.5,10.813,10.255,10.255,0,0,1-6.047-1.972l-8.263,8.506a18.424,18.424,0,0,1,2.2,19.116l4.688,2.144A10.4,10.4,0,0,1,377.5,503a10.818,10.818,0,1,1-10.5,10.813,11.1,11.1,0,0,1,.435-3.083l-4.986-2.281a17.342,17.342,0,0,1-12.06,6.938v7.394a7.021,7.021,0,1,1-3.591,0V515.39a17.5,17.5,0,0,1-13.712-9.607Z" transform="translate(-159.031 -174.812)"></path><path class="cls-3" d="M688.535,314.025a38.621,38.621,0,0,0-29.529,13.686c-0.937,1.336-84.136,101.484-165.828,320.8-37.264-60.757-66.425-95.473-68.066-97.478a38.474,38.474,0,0,0-58.993,49.406c0.5,0.332,50.188,60.088,101.044,158.9a38.185,38.185,0,0,0,34.285,20.7h3.114a38.708,38.708,0,0,0,33.581-26.374c83.4-257.045,178.953-375.552,179.924-376.553a38.454,38.454,0,0,0-29.529-63.094" transform="translate(-159.031 -174.812)"></path></svg>